<svg width="30" height="30" viewBox="0 0 30 30" fill="none" xmlns="http://www.w3.org/2000/svg">
<path d="M10.9624 18.0375L12.9749 18.9375C14.2624 19.5125 15.7374 19.5125 17.0374 18.9375L19.0499 18.0375C20.8499 17.2375 22.5124 19.4125 21.2624 20.9375L16.9374 26.225C15.8749 27.525 14.1374 27.525 13.0624 26.225L8.7499 20.9375C7.4874 19.4125 9.14989 17.2375 10.9624 18.0375Z" fill="white"/>
<path d="M10.7126 14.5875C10.3376 14.8625 10.3876 15.4375 10.8126 15.65L13.7501 17.1125C14.4376 17.4625 15.5501 17.4625 16.2251 17.1125L19.1626 15.65C19.5751 15.4375 19.6251 14.875 19.2626 14.5875L15.3751 11.6625C15.1501 11.5 14.8501 11.5 14.6251 11.6625L10.7126 14.5875Z" fill="white"/>
<path d="M22.3499 10.3L17.1374 3.8C17.0374 3.675 16.9249 3.5625 16.8124 3.45C16.4874 3.1375 16.0249 3.425 16.0249 3.875V9.25C16.0249 9.45 16.1124 9.6375 16.2749 9.75L21.4624 13.65L21.6874 13.8125C21.9124 13.975 22.2249 13.975 22.4124 13.775C23.2874 12.825 23.2749 11.45 22.3499 10.3Z" fill="white"/>
<path d="M7.63756 10.4125L12.8251 3.8125C12.9251 3.6875 13.0251 3.575 13.1376 3.4625C13.4626 3.15 13.9251 3.425 13.9251 3.8875V9.35C13.9251 9.55 13.8376 9.725 13.6751 9.85L8.51256 13.8125L8.30006 13.975C8.07506 14.1375 7.76257 14.1375 7.56257 13.925C6.71257 12.9625 6.72506 11.5875 7.63756 10.4125Z" fill="white"/>
</svg>
